<?xml version="1.0" encoding="utf-8"?>
<!-- Generator: Adobe Illustrator 25.0.0, SVG Export Plug-In . SVG Version: 6.00 Build 0)  -->
<svg version="1.1" id="Layer_1" xmlns="http://www.w3.org/2000/svg" xmlns:xlink="http://www.w3.org/1999/xlink" x="0px" y="0px"
	 viewBox="0 0 792 612" style="enable-background:new 0 0 792 612;" xml:space="preserve">
<style type="text/css">
	.st0{fill:#5B8FCB;}
	.st1{fill:#AD2F92;}
</style>
<g>
	<polygon class="st0" points="300.36,308.3 300.35,308.32 296.13,308.32 310.98,342.08 315.21,342.08 	"/>
	<polygon class="st1" points="292.19,308.32 288.07,308.32 302.91,342.08 307.05,342.08 292.2,308.32 	"/>
	<polygon class="st0" points="310.98,274.62 307.05,274.62 302.91,274.62 299.9,274.62 295.67,274.62 280.43,308.38 284.64,308.38 
		284.66,308.38 288.06,308.38 288.07,308.38 292.19,308.38 292.2,308.38 296.12,308.38 296.13,308.38 300.35,308.38 300.36,308.4 
		315.21,274.62 	"/>
	<polygon class="st0" points="284.64,308.32 280.43,308.32 295.67,342.08 299.9,342.08 284.66,308.32 	"/>
	<polygon class="st1" points="333.93,308.4 333.94,308.38 338.15,308.38 323.31,274.62 319.08,274.62 	"/>
	<polygon class="st0" points="342.1,308.38 346.22,308.38 331.37,274.62 327.24,274.62 342.08,308.38 	"/>
	<polygon class="st1" points="349.65,308.32 349.63,308.32 346.23,308.32 346.22,308.32 342.1,308.32 342.08,308.32 338.17,308.32 
		338.15,308.32 333.94,308.32 333.93,308.3 319.08,342.08 323.31,342.08 327.24,342.08 331.37,342.08 334.39,342.08 338.62,342.08 
		353.86,308.32 	"/>
	<polygon class="st1" points="349.65,308.38 353.86,308.38 338.62,274.62 334.39,274.62 349.63,308.38 	"/>
	<g>
		<g>
			<path class="st0" d="M386.48,267.15c8.4,0,12.6,4.85,12.6,10.7c0,4.25-2.35,8.55-7.95,10.05l8.35,14.15h-8.1l-7.7-13.6h-3.3v13.6
				h-7v-34.9H386.48z M386.23,272.95h-5.85v10.25h5.85c3.9,0,5.65-2.05,5.65-5.2C391.88,274.9,390.13,272.95,386.23,272.95z"/>
			<path class="st0" d="M431.58,302.05h-7.05v-3.5c-1.75,2.35-4.8,3.85-8.25,3.85c-6.45,0-11.1-4.2-11.1-11.8v-16.25h7v15.25
				c0,4.45,2.45,6.85,6.15,6.85c3.8,0,6.2-2.4,6.2-6.85v-15.25h7.05V302.05z"/>
			<path class="st0" d="M438.47,265.05h7v12.75c1.8-2.35,4.9-3.85,8.6-3.85c6.25,0,10.8,4.2,10.8,11.85v16.25h-7v-15.3
				c0-4.45-2.45-6.85-6.15-6.85c-3.8,0-6.25,2.4-6.25,6.85v15.3h-7V265.05z"/>
			<path class="st0" d="M497.68,302.05h-7.05v-3.5c-1.75,2.35-4.8,3.85-8.25,3.85c-6.45,0-11.1-4.2-11.1-11.8v-16.25h7v15.25
				c0,4.45,2.45,6.85,6.15,6.85c3.8,0,6.2-2.4,6.2-6.85v-15.25h7.05V302.05z"/>
			<path class="st0" d="M504.57,265.05h7v37h-7V265.05z"/>
		</g>
	</g>
	<g>
		<g>
			<path class="st1" d="M382.6,311.6h7.05v24.5c0,6.9-4.4,10.75-10.85,10.75c-6.55,0-11.15-3.95-11.15-11h7
				c0.05,2.95,1.4,4.75,4.05,4.75c2.6,0,3.9-1.75,3.9-4.5V311.6z"/>
			<path class="st1" d="M423.95,346.5h-7.05V343c-1.75,2.35-4.8,3.85-8.25,3.85c-6.45,0-11.1-4.2-11.1-11.8V318.8h7v15.25
				c0,4.45,2.45,6.85,6.15,6.85c3.8,0,6.2-2.4,6.2-6.85V318.8h7.05V346.5z"/>
			<path class="st1" d="M427.75,318.8h7.1l4.9,21.1l5.3-21.1h7.4l5.2,21.05l4.9-21.05h6.7l-8.1,27.7h-7.55l-5.05-19.35l-5.05,19.35
				h-7.6L427.75,318.8z"/>
			<path class="st1" d="M485.15,346.95c-8.05,0-13.9-5.6-13.9-14.3c0-8.75,5.7-14.3,13.9-14.3c8,0,13.65,5.45,13.65,13.7
				c0,0.9-0.05,1.8-0.2,2.7h-20.25c0.35,4.1,3.15,6.4,6.65,6.4c3,0,4.65-1.5,5.55-3.35h7.55C496.6,342.9,492,346.95,485.15,346.95z
				 M478.4,330.05h13.15c-0.1-3.65-3-5.95-6.6-5.95C481.6,324.1,478.95,326.25,478.4,330.05z"/>
			<path class="st1" d="M503.9,309.5h7v37h-7V309.5z"/>
		</g>
	</g>
</g>
</svg>
